<svg width="167" height="109" viewBox="0 0 167 109" fill="none" xmlns="http://www.w3.org/2000/svg">
<g clip-path="url(#clip0_54625_2372)">
<path d="M92.4371 68.5231H88.09V53.5925C87.2553 53.1816 84.3688 51.1269 83.6385 51.0927C82.8734 51.0584 79.8826 53.1131 79.0479 53.5925V68.5231C77.622 68.5231 76.231 68.4888 74.8051 68.5231C74.5269 68.5231 73.5879 68.8655 73.5879 68.4546V6.54068L83.3255 0C86.4207 1.95193 89.5158 3.97235 92.4371 6.164V68.5231Z" fill="#BCA76F"/>
<path d="M0 93.727C4.83403 89.9259 10.2593 86.8096 15.8932 84.2413C53.9742 66.7766 112.296 66.7424 150.342 84.3098C156.219 87.0151 161.957 90.3368 167.035 94.3776C153.402 87.1863 138.448 82.6318 123.216 79.8923C86.5604 73.3173 39.7155 75.5432 5.6339 91.1587C4.13848 91.8436 2.36485 93.0079 0.938984 93.59C0.625989 93.6928 0.382549 93.7612 0.0347772 93.727H0Z" fill="#BCA76F"/>
<path d="M113.896 70.4065L104.854 69.4819V14.6224C105.132 14.5539 105.271 14.7251 105.48 14.8278C108.296 16.4031 111.113 18.9029 113.896 20.6151V70.3723V70.4065Z" fill="#BCA76F"/>
<path d="M61.1731 14.9648V69.4477L52.6875 70.3723V20.6494C54.635 19.1426 56.7217 17.8071 58.7735 16.4373C59.5386 15.9237 60.3385 15.3415 61.1731 14.9991V14.9648Z" fill="#BCA76F"/>
<path d="M70.5982 8.66384V68.6258C70.5982 68.6258 70.2852 68.8998 70.1113 68.8998L64.373 69.2765V12.6704L70.5982 8.69809V8.66384Z" fill="#BCA76F"/>
<path d="M101.653 69.1052L95.6367 68.7286V8.3214L101.653 12.2937V69.1052Z" fill="#BCA76F"/>
<path d="M16.1022 108.966C14.6763 108.966 13.3548 108.692 12.1724 108.144C10.99 107.596 10.051 106.774 9.35544 105.713C8.65989 104.651 8.27734 103.315 8.27734 101.706C8.27734 100.679 8.45123 99.7198 8.83378 98.8294C9.18155 97.939 9.73798 97.1514 10.4335 96.4323C11.1291 95.7132 11.9985 95.1995 13.007 94.8228C14.0156 94.4461 15.1632 94.2406 16.45 94.2406C17.1107 94.2406 17.8411 94.3091 18.6062 94.4461C19.3713 94.5831 20.032 94.7543 20.6232 94.994L20.7971 98.3157L19.6843 98.4185L18.9539 96.0898C18.6409 95.8844 18.2236 95.7132 17.702 95.6104C17.1803 95.5077 16.6934 95.4392 16.2065 95.4392C14.9546 95.4392 13.946 95.7132 13.1809 96.2268C12.4158 96.7405 11.8246 97.4596 11.4421 98.3157C11.0595 99.2061 10.8856 100.165 10.8856 101.227C10.8856 102.596 11.1291 103.761 11.616 104.719C12.1028 105.678 12.7636 106.397 13.5983 106.877C14.4329 107.356 15.3371 107.596 16.3456 107.596C16.8673 107.596 17.3542 107.527 17.7715 107.425C18.1888 107.322 18.6062 107.151 19.0235 106.911L20.1016 104.617L21.2492 104.754L20.5537 107.836C19.9973 108.11 19.3365 108.384 18.5366 108.589C17.7367 108.795 16.9369 108.897 16.1022 108.897V108.966Z" fill="#BCA76F"/>
<path d="M23.1977 108.76V107.836L24.6583 107.459C24.6583 107.356 24.6583 107.185 24.6583 106.945C24.6583 106.706 24.6583 106.432 24.6583 106.089C24.6583 105.747 24.6583 105.404 24.6583 105.062C24.6583 104.685 24.6583 104.309 24.6583 103.932V99.3431C24.6583 98.5897 24.6583 97.9733 24.6583 97.4596C24.6583 96.946 24.6583 96.535 24.6583 96.2611C24.6583 95.9871 24.6583 95.8159 24.5888 95.7474L23.0586 95.405L23.1281 94.4804H28.5534C30.0836 94.4804 31.266 94.7886 32.1007 95.3707C32.9353 95.9529 33.3179 96.8432 33.3179 97.9733C33.3179 98.7609 33.1092 99.48 32.6571 100.096C32.205 100.713 31.579 101.227 30.8139 101.569C30.014 101.911 29.1098 102.117 28.0665 102.117H26.5015V101.021H27.8926C28.9012 101.021 29.701 100.781 30.2922 100.268C30.8835 99.754 31.1617 99.0691 31.1617 98.1788C31.1617 97.2884 30.9182 96.672 30.4314 96.2268C29.9445 95.7817 29.2142 95.5419 28.3099 95.5419H26.8841C26.8841 95.5419 26.8841 95.6447 26.8493 95.7474C26.8145 95.8501 26.8493 95.9871 26.8493 96.2268V103.898C26.8493 104.582 26.8493 105.165 26.8493 105.644C26.8493 106.123 26.8493 106.5 26.8841 106.774C26.8841 107.048 26.9189 107.288 26.9536 107.459L28.4143 107.836L28.3447 108.76H23.2673H23.1977ZM34.9176 109C34.1873 109 33.5613 108.863 33.0049 108.589C32.4484 108.315 31.892 107.87 31.3703 107.254C30.8487 106.637 30.2575 105.781 29.6663 104.719L27.997 101.706L29.8401 101.295L32.518 105.165C32.9701 105.815 33.3874 106.363 33.77 106.774C34.1525 107.185 34.5003 107.459 34.8828 107.664C35.2306 107.87 35.6479 108.007 36.0653 108.075V108.932C35.8914 108.932 35.6827 109 35.5088 109C35.3349 109 35.1263 109 34.9524 109H34.9176Z" fill="#BCA76F"/>
<path d="M47.9224 108.863C47.4355 108.829 47.0182 108.795 46.6356 108.76C46.2531 108.726 45.9053 108.76 45.5923 108.76H37.1067L37.0371 107.836L38.5673 107.493C38.5673 107.493 38.6369 107.219 38.6369 106.945C38.6369 106.637 38.6369 106.26 38.6369 105.747C38.6369 105.233 38.6369 104.651 38.6369 103.932V99.3431C38.6369 98.6239 38.6369 98.0075 38.6369 97.4939C38.6369 96.9802 38.6369 96.5693 38.6369 96.2953C38.6369 95.9871 38.6369 95.8159 38.5673 95.7474L37.0371 95.405L37.1067 94.4804H45.0359C45.2793 94.4804 45.5227 94.4804 45.7662 94.4804C46.0096 94.4804 46.2878 94.4804 46.6008 94.4461C46.9138 94.4119 47.192 94.4461 47.505 94.4119L47.9919 97.6309L46.879 97.8021L46.0792 95.7474C46.0792 95.7474 45.801 95.6789 45.6271 95.6789C45.4532 95.6789 45.2793 95.6789 45.1054 95.6789H42.3232C42.0102 95.6789 41.732 95.6789 41.4886 95.6789C41.2451 95.6789 41.0017 95.6789 40.793 95.7474C40.793 95.8159 40.793 95.9871 40.793 96.2953C40.793 96.6035 40.793 96.946 40.793 97.3227C40.793 97.6993 40.793 98.1103 40.793 98.487V105.062C40.793 105.37 40.793 105.713 40.793 106.055C40.793 106.397 40.793 106.671 40.793 106.945C40.793 107.219 40.793 107.391 40.793 107.493C41.0365 107.493 41.2799 107.493 41.5234 107.527C41.7668 107.562 42.0798 107.527 42.3928 107.527H44.7924C45.1402 107.527 45.4532 107.527 45.6966 107.527C45.9401 107.527 46.114 107.527 46.2531 107.493C46.3922 107.493 46.4965 107.493 46.5661 107.459L47.8528 105.165L48.9657 105.37L47.9571 108.932L47.9224 108.863ZM45.175 103.761L44.862 102.117C44.862 102.117 44.6533 102.048 44.4446 102.048C44.236 102.048 43.9925 102.048 43.7143 102.048H41.8364C41.6277 102.048 41.3843 102.048 41.1408 102.048C40.8974 102.048 40.6192 102.048 40.3409 102.083V100.747C40.6192 100.747 40.8974 100.747 41.1408 100.781C41.3843 100.816 41.6277 100.781 41.8364 100.781H43.7143C43.9925 100.781 44.236 100.781 44.4446 100.781C44.6533 100.781 44.7924 100.781 44.862 100.747L45.175 99.0691H46.2531V103.795H45.175V103.761Z" fill="#BCA76F"/>
<path d="M50.8789 94.4804H56.8606C59.4689 94.4804 61.4859 95.0968 62.9466 96.3296C64.4072 97.5624 65.1375 99.2746 65.1375 101.466C65.1375 102.904 64.7898 104.137 64.129 105.233C63.4682 106.329 62.5293 107.185 61.3121 107.801C60.0949 108.418 58.7385 108.726 57.1736 108.726H50.9137V107.801L52.3743 107.459C52.3743 107.322 52.4439 106.911 52.4787 106.226C52.4787 105.541 52.5134 104.754 52.5134 103.898V99.3088C52.5134 98.35 52.5134 97.5281 52.4787 96.8775C52.4439 96.2268 52.4091 95.8159 52.3743 95.7132L50.8789 95.3707V94.4461V94.4804ZM54.6001 95.7817C54.6001 95.7817 54.6001 96.1241 54.6001 96.3638C54.6001 96.6035 54.6001 96.9802 54.6001 97.4254C54.6001 97.8706 54.6001 98.5212 54.6001 99.3088V103.898C54.6001 104.377 54.6001 104.856 54.6001 105.267C54.6001 105.678 54.6001 106.089 54.6348 106.432C54.6696 106.774 54.6696 107.048 54.7044 107.288C55.2261 107.356 55.7129 107.391 56.1303 107.459C56.5476 107.493 56.9649 107.527 57.3475 107.527C59.0863 107.527 60.4078 107.082 61.3121 106.158C62.2163 105.233 62.6684 103.932 62.6684 102.185C62.6684 101.124 62.5293 100.199 62.2858 99.3773C62.0076 98.5555 61.6251 97.8706 61.1034 97.3227C60.5817 96.7747 59.9558 96.3638 59.1907 96.0556C58.4256 95.7817 57.5561 95.6447 56.5824 95.6447C56.2694 95.6447 55.9564 95.6447 55.6434 95.6789C55.3304 95.7132 54.9826 95.7474 54.6001 95.8159V95.7817Z" fill="#BCA76F"/>
<path d="M67.7106 108.76V107.836L69.1712 107.493C69.1712 107.425 69.2408 107.219 69.2408 106.945C69.2408 106.637 69.2408 106.26 69.2408 105.747C69.2408 105.233 69.2408 104.651 69.2408 103.932V99.3431C69.2408 98.6239 69.2408 98.0075 69.2408 97.4939C69.2408 96.9802 69.2408 96.5693 69.2408 96.2953C69.2408 95.9871 69.2408 95.8159 69.1712 95.7474L67.6758 95.405V94.4804H72.9967V95.405L71.536 95.7474C71.536 95.7816 71.4665 95.9529 71.4665 96.2268C71.4665 96.5008 71.4317 96.8775 71.4317 97.3911C71.4317 97.9048 71.4317 98.5554 71.4317 99.3431V103.932C71.4317 104.719 71.4317 105.336 71.4317 105.85C71.4317 106.363 71.4317 106.74 71.4665 107.014C71.4665 107.288 71.536 107.459 71.536 107.527L73.0315 107.87V108.795H67.7106V108.76Z" fill="#BCA76F"/>
<path d="M86.9424 94.3776L87.4989 98.3157L86.4208 98.4527L85.3774 95.7132C85.3774 95.7132 85.0992 95.6447 84.9253 95.6447C84.7515 95.6447 84.6123 95.6447 84.4732 95.6447H82.9083C82.63 95.6447 82.3866 95.6447 82.1432 95.6447C82.1432 95.7816 82.1432 96.0899 82.1432 96.5693C82.1432 97.0487 82.1432 97.5966 82.1432 98.2472V103.35C82.1432 104.377 82.1432 105.267 82.1432 106.021C82.1432 106.774 82.1432 107.254 82.1432 107.493L84.2298 107.767L84.1602 108.726H77.8656V107.767L79.8826 107.493C79.8826 107.254 79.8826 106.774 79.8826 106.021C79.8826 105.267 79.8826 104.377 79.8826 103.35V96.5693C79.8826 96.0899 79.8826 95.7816 79.8826 95.6447C79.674 95.6447 79.4305 95.6447 79.1523 95.6447H77.5178C77.5178 95.6447 77.2396 95.6447 77.0657 95.6447C76.8918 95.6447 76.7527 95.6447 76.6136 95.7132L75.6051 98.487L74.4922 98.35L75.0486 94.4119C75.2573 94.4119 75.4312 94.4119 75.6398 94.4461C75.8485 94.4461 76.0224 94.4461 76.231 94.4461C76.4397 94.4461 76.6136 94.4461 76.8223 94.4461C77.0309 94.4461 77.2396 94.4461 77.4135 94.4461H84.4732C84.6819 94.4461 84.8558 94.4461 85.0644 94.4461C85.2731 94.4461 85.447 94.4461 85.6557 94.4461C85.8643 94.4461 86.0382 94.4461 86.2469 94.4461C86.4555 94.4461 86.6642 94.4461 86.8381 94.4119L86.9424 94.3776Z" fill="#BCA76F"/>
<path d="M93.8645 108.76L93.7949 107.836L95.3251 107.493C95.3251 107.493 95.3947 107.219 95.3947 106.945C95.3947 106.637 95.3947 106.26 95.3947 105.747C95.3947 105.233 95.3947 104.651 95.3947 103.932V99.3431C95.3947 98.6239 95.3947 98.0075 95.3947 97.4939C95.3947 96.9802 95.3947 96.5693 95.3947 96.2953C95.3947 95.9871 95.3947 95.8159 95.3251 95.7474L93.7949 95.405L93.8645 94.4804H99.1158V95.405L97.6552 95.7474C97.6552 95.7817 97.5856 95.9529 97.5856 96.2268C97.5856 96.5008 97.5509 96.8775 97.5509 97.3911C97.5509 97.9048 97.5509 98.5555 97.5509 99.3431V103.932C97.5509 104.719 97.5509 105.336 97.5509 105.85C97.5509 106.363 97.5509 106.74 97.5856 107.014C97.5856 107.288 97.6552 107.459 97.6552 107.527L99.1506 107.87V108.795H93.8297L93.8645 108.76ZM97.2379 102.151V100.713C97.5509 100.713 98.0377 100.713 98.6985 100.747C99.3593 100.781 100.09 100.747 100.994 100.747C101.898 100.747 102.628 100.747 103.254 100.747C103.88 100.747 104.332 100.747 104.645 100.713V102.151C104.298 102.151 103.811 102.083 103.254 102.083C102.663 102.083 101.933 102.083 100.994 102.083C100.055 102.083 99.2549 102.083 98.6637 102.083C98.0725 102.083 97.5856 102.117 97.2379 102.151ZM102.767 108.76V107.836L104.228 107.493C104.228 107.425 104.298 107.254 104.298 106.98C104.298 106.706 104.332 106.329 104.332 105.815C104.332 105.302 104.332 104.685 104.332 103.898V99.3088C104.332 98.5212 104.332 97.8706 104.332 97.3569C104.332 96.8432 104.332 96.4665 104.298 96.1926C104.298 95.9186 104.228 95.7817 104.228 95.7132L102.733 95.3707V94.4461H108.088L108.158 95.3707L106.628 95.7132C106.628 95.7132 106.558 95.9186 106.523 96.1926C106.523 96.4665 106.489 96.8432 106.489 97.3569C106.489 97.8706 106.489 98.5212 106.489 99.3088V103.898C106.489 104.685 106.489 105.302 106.489 105.815C106.489 106.329 106.489 106.706 106.523 106.98C106.523 107.254 106.593 107.425 106.628 107.493L108.158 107.836L108.088 108.76H102.767Z" fill="#BCA76F"/>
<path d="M117.894 108.966C116.468 108.966 115.182 108.658 114.069 108.041C112.956 107.425 112.086 106.569 111.46 105.473C110.834 104.377 110.521 103.11 110.521 101.672C110.521 100.233 110.834 98.9664 111.495 97.8706C112.156 96.7747 113.025 95.8844 114.138 95.2337C115.251 94.5831 116.538 94.2749 117.929 94.2749C119.32 94.2749 120.537 94.5831 121.581 95.1995C122.624 95.8159 123.459 96.672 124.05 97.7678C124.641 98.8636 124.954 100.096 124.954 101.535C124.954 102.631 124.78 103.624 124.398 104.514C124.015 105.404 123.493 106.226 122.833 106.877C122.172 107.527 121.407 108.075 120.572 108.418C119.737 108.795 118.833 108.966 117.859 108.966H117.894ZM118.103 107.664C119.007 107.664 119.772 107.425 120.398 106.98C121.059 106.534 121.546 105.884 121.928 105.062C122.276 104.24 122.485 103.247 122.485 102.117C122.485 100.816 122.276 99.6513 121.894 98.6582C121.476 97.6651 120.92 96.9117 120.19 96.3296C119.459 95.7817 118.625 95.4735 117.651 95.4735C116.26 95.4735 115.147 95.9871 114.312 97.0145C113.478 98.0418 113.095 99.4458 113.095 101.227C113.095 102.494 113.304 103.589 113.721 104.582C114.138 105.541 114.73 106.295 115.495 106.843C116.26 107.391 117.129 107.664 118.103 107.664Z" fill="#BCA76F"/>
<path d="M127.598 94.4804H131.876L137.058 106.123H136.605L141.683 94.4804H145.682L145.752 95.405L144.222 95.7132C144.222 95.9529 144.222 96.3638 144.222 96.9802C144.222 97.5966 144.222 98.2815 144.256 99.0006L144.361 103.452C144.361 104.274 144.361 104.925 144.396 105.473C144.43 106.021 144.396 106.466 144.43 106.774C144.43 107.082 144.43 107.356 144.465 107.493L145.961 107.801V108.726H140.674L140.605 107.801L142.1 107.493C142.1 107.288 142.1 107.082 142.1 106.808V105.713C142.1 105.233 142.1 104.617 142.1 103.795V95.1653H142.692L136.71 108.795H135.84L129.72 95.131H130.346V103.384C130.346 104.719 130.346 105.713 130.38 106.329C130.415 106.945 130.38 107.322 130.415 107.459L132.084 107.801L132.015 108.726H127.181L127.111 107.801L128.781 107.459C128.781 107.459 128.781 107.151 128.815 106.843C128.815 106.534 128.815 106.123 128.85 105.61C128.885 105.096 128.85 104.48 128.85 103.795L128.92 98.9664C128.92 98.2473 128.92 97.5966 128.92 97.0145C128.92 96.4323 128.92 95.9871 128.92 95.7132L127.424 95.3707V94.4461L127.598 94.4804Z" fill="#BCA76F"/>
<path d="M159.209 108.863C158.723 108.829 158.305 108.795 157.923 108.76C157.54 108.726 157.192 108.76 156.879 108.76H148.394L148.324 107.836L149.854 107.493C149.854 107.493 149.924 107.219 149.924 106.945C149.924 106.637 149.924 106.26 149.924 105.747C149.924 105.233 149.924 104.651 149.924 103.932V99.3431C149.924 98.6239 149.924 98.0075 149.924 97.4939C149.924 96.9802 149.924 96.5693 149.924 96.2953C149.924 95.9871 149.924 95.8159 149.854 95.7474L148.324 95.405L148.394 94.4804H156.323C156.566 94.4804 156.81 94.4804 157.053 94.4804C157.297 94.4804 157.575 94.4804 157.888 94.4461C158.201 94.4119 158.479 94.4461 158.792 94.4119L159.279 97.6309L158.166 97.8021L157.366 95.7474C157.366 95.7474 157.088 95.6789 156.914 95.6789C156.74 95.6789 156.566 95.6789 156.393 95.6789H153.61C153.297 95.6789 153.019 95.6789 152.776 95.6789C152.532 95.6789 152.289 95.6789 152.08 95.7474C152.08 95.8159 152.08 95.9871 152.08 96.2953C152.08 96.6035 152.08 96.946 152.08 97.3227C152.08 97.6993 152.08 98.1103 152.08 98.487V105.062C152.08 105.37 152.08 105.713 152.08 106.055C152.08 106.397 152.08 106.671 152.08 106.945C152.08 107.219 152.08 107.391 152.08 107.493C152.324 107.493 152.567 107.493 152.81 107.527C153.054 107.562 153.367 107.527 153.68 107.527H156.08C156.427 107.527 156.74 107.527 156.984 107.527C157.227 107.527 157.401 107.527 157.54 107.493C157.679 107.493 157.784 107.493 157.853 107.459L159.14 105.165L160.253 105.37L159.244 108.932L159.209 108.863ZM156.462 103.761L156.149 102.117C156.149 102.117 155.94 102.048 155.732 102.048C155.523 102.048 155.28 102.048 155.001 102.048H153.123C152.915 102.048 152.671 102.048 152.428 102.048C152.184 102.048 151.906 102.048 151.628 102.083V100.747C151.906 100.747 152.184 100.747 152.428 100.781C152.671 100.816 152.915 100.781 153.123 100.781H155.001C155.28 100.781 155.523 100.781 155.732 100.781C155.94 100.781 156.08 100.781 156.149 100.747L156.462 99.0691H157.54V103.795H156.462V103.761Z" fill="#BCA76F"/>
</g>
<defs>
<clipPath id="clip0_54625_2372">
<rect width="167" height="109" fill="white"/>
</clipPath>
</defs>
</svg>
